<svg width="974" height="203" viewBox="0 0 974 203" fill="none" xmlns="http://www.w3.org/2000/svg">
<rect x="30.1123" y="0.528412" width="913.928" height="9.73026" fill="#4B69D4"/>
<rect x="30.1123" y="10.2591" width="913.928" height="9.73026" fill="#BEDBF5"/>
<rect x="30.1123" y="173.35" width="913.928" height="9.73026" fill="#BEDBF5"/>
<rect x="30.1106" y="183.08" width="913.929" height="9.73026" fill="#4B69D4"/>
<rect x="973.22" y="29.7192" width="133.899" height="9.73029" transform="rotate(90 973.22 29.7192)" fill="#4B69D4"/>
<rect x="963.489" y="29.7192" width="133.899" height="9.73029" transform="rotate(90 963.489 29.7192)" fill="#BEDBF5"/>
<rect x="0.919922" y="163.62" width="133.899" height="9.73029" transform="rotate(-90 0.919922 163.62)" fill="#4B69D4"/>
<rect x="10.6501" y="163.62" width="133.9" height="9.73029" transform="rotate(-90 10.6501 163.62)" fill="#BEDBF5"/>
<g filter="url(#filter0_b_204_11790)">
<rect x="20.3804" y="153.889" width="114.439" height="9.73029" transform="rotate(-90 20.3804 153.889)" fill="#E6E6F6" fill-opacity="0.48"/>
</g>
<g filter="url(#filter1_b_204_11790)">
<rect x="944.031" y="153.889" width="114.438" height="9.73029" transform="rotate(-90 944.031 153.889)" fill="#E6E6F6" fill-opacity="0.48"/>
</g>
<g filter="url(#filter2_b_204_11790)">
<rect x="30.1123" y="163.62" width="133.899" height="9.73029" transform="rotate(-90 30.1123 163.62)" fill="#E6E6F6" fill-opacity="0.48"/>
</g>
<g filter="url(#filter3_b_204_11790)">
<rect x="39.8425" y="173.35" width="153.36" height="894.457" transform="rotate(-90 39.8425 173.35)" fill="#E6E6F6" fill-opacity="0.48"/>
</g>
<g filter="url(#filter4_b_204_11790)">
<rect x="934.299" y="163.619" width="133.9" height="9.73029" transform="rotate(-90 934.299 163.619)" fill="#E6E6F6" fill-opacity="0.48"/>
</g>
<rect x="953.759" y="10.2586" width="9.73029" height="9.73029" transform="rotate(90 953.759 10.2586)" fill="#4B69D4"/>
<rect x="953.759" y="173.349" width="9.73029" height="9.73029" transform="rotate(90 953.759 173.349)" fill="#4B69D4"/>
<rect x="10.6501" y="173.349" width="9.73029" height="9.73029" transform="rotate(-90 10.6501 173.349)" fill="#4B69D4"/>
<rect x="20.3804" y="183.08" width="9.73029" height="9.73029" transform="rotate(-90 20.3804 183.08)" fill="#4B69D4"/>
<rect x="0.919922" y="173.349" width="9.73029" height="9.73029" transform="rotate(-90 0.919922 173.349)" fill="#30437E"/>
<rect x="10.6501" y="183.08" width="9.73029" height="9.73029" transform="rotate(-90 10.6501 183.08)" fill="#30437E"/>
<rect x="20.3804" y="192.81" width="9.73029" height="9.73029" transform="rotate(-90 20.3804 192.81)" fill="#30437E"/>
<rect x="963.488" y="163.619" width="9.73029" height="9.73029" transform="rotate(90 963.488 163.619)" fill="#4B69D4"/>
<rect x="963.488" y="19.9891" width="9.73029" height="9.73029" transform="rotate(90 963.488 19.9891)" fill="#4B69D4"/>
<rect x="10.6501" y="29.7196" width="9.73029" height="9.73029" transform="rotate(-90 10.6501 29.7196)" fill="#4B69D4"/>
<rect x="20.3804" y="19.9891" width="9.73029" height="9.73029" transform="rotate(-90 20.3804 19.9891)" fill="#4B69D4"/>
<rect x="20.3804" y="29.7198" width="9.73029" height="9.73029" transform="rotate(-90 20.3804 29.7198)" fill="#BEDBF5"/>
<rect x="20.3804" y="39.4502" width="9.73029" height="9.73029" transform="rotate(-90 20.3804 39.4502)" fill="#BEDBF5"/>
<rect x="20.3804" y="173.35" width="9.73029" height="9.73029" transform="rotate(-90 20.3804 173.35)" fill="#BEDBF5"/>
<path d="M30.1123 173.35L30.1123 163.619L39.8426 163.619L39.8426 173.35L30.1123 173.35Z" fill="#BEDBF5"/>
<rect x="934.298" y="173.35" width="9.73029" height="9.73029" transform="rotate(-90 934.298 173.35)" fill="#BEDBF5"/>
<rect x="944.029" y="173.349" width="9.73029" height="9.73029" transform="rotate(-90 944.029 173.349)" fill="#BEDBF5"/>
<rect x="944.029" y="163.619" width="9.73029" height="9.73029" transform="rotate(-90 944.029 163.619)" fill="#BEDBF5"/>
<rect x="20.3804" y="163.62" width="9.73029" height="9.73029" transform="rotate(-90 20.3804 163.62)" fill="#BEDBF5"/>
<rect x="30.1123" y="29.7198" width="9.73029" height="9.73029" transform="rotate(-90 30.1123 29.7198)" fill="#BEDBF5"/>
<rect x="934.298" y="29.7198" width="9.73029" height="9.73029" transform="rotate(-90 934.298 29.7198)" fill="#BEDBF5"/>
<rect x="944.028" y="29.7198" width="9.73029" height="9.73029" transform="rotate(-90 944.028 29.7198)" fill="#BEDBF5"/>
<rect x="944.028" y="39.451" width="9.73029" height="9.73029" transform="rotate(-90 944.028 39.451)" fill="#BEDBF5"/>
<rect x="30.1106" y="192.81" width="913.929" height="9.73026" fill="#30437E"/>
<rect x="953.76" y="183.079" width="9.73029" height="9.73029" transform="rotate(-90 953.76 183.079)" fill="#30437E"/>
<rect x="944.028" y="192.81" width="9.73029" height="9.73029" transform="rotate(-90 944.028 192.81)" fill="#30437E"/>
<rect x="963.49" y="173.349" width="9.73029" height="9.73029" transform="rotate(-90 963.49 173.349)" fill="#30437E"/>
<defs>
<filter id="filter0_b_204_11790" x="12.1804" y="31.2502" width="26.1302" height="130.839" filterUnits="userSpaceOnUse" color-interpolation-filters="sRGB">
<feFlood flood-opacity="0" result="BackgroundImageFix"/>
<feGaussianBlur in="BackgroundImageFix" stdDeviation="4.1"/>
<feComposite in2="SourceAlpha" operator="in" result="effect1_backgroundBlur_204_11790"/>
<feBlend mode="normal" in="SourceGraphic" in2="effect1_backgroundBlur_204_11790" result="shape"/>
</filter>
<filter id="filter1_b_204_11790" x="935.831" y="31.2502" width="26.1303" height="130.838" filterUnits="userSpaceOnUse" color-interpolation-filters="sRGB">
<feFlood flood-opacity="0" result="BackgroundImageFix"/>
<feGaussianBlur in="BackgroundImageFix" stdDeviation="4.1"/>
<feComposite in2="SourceAlpha" operator="in" result="effect1_backgroundBlur_204_11790"/>
<feBlend mode="normal" in="SourceGraphic" in2="effect1_backgroundBlur_204_11790" result="shape"/>
</filter>
<filter id="filter2_b_204_11790" x="21.9123" y="21.5207" width="26.1302" height="150.299" filterUnits="userSpaceOnUse" color-interpolation-filters="sRGB">
<feFlood flood-opacity="0" result="BackgroundImageFix"/>
<feGaussianBlur in="BackgroundImageFix" stdDeviation="4.1"/>
<feComposite in2="SourceAlpha" operator="in" result="effect1_backgroundBlur_204_11790"/>
<feBlend mode="normal" in="SourceGraphic" in2="effect1_backgroundBlur_204_11790" result="shape"/>
</filter>
<filter id="filter3_b_204_11790" x="31.6425" y="11.7899" width="910.857" height="169.76" filterUnits="userSpaceOnUse" color-interpolation-filters="sRGB">
<feFlood flood-opacity="0" result="BackgroundImageFix"/>
<feGaussianBlur in="BackgroundImageFix" stdDeviation="4.1"/>
<feComposite in2="SourceAlpha" operator="in" result="effect1_backgroundBlur_204_11790"/>
<feBlend mode="normal" in="SourceGraphic" in2="effect1_backgroundBlur_204_11790" result="shape"/>
</filter>
<filter id="filter4_b_204_11790" x="926.099" y="21.5199" width="26.1303" height="150.3" filterUnits="userSpaceOnUse" color-interpolation-filters="sRGB">
<feFlood flood-opacity="0" result="BackgroundImageFix"/>
<feGaussianBlur in="BackgroundImageFix" stdDeviation="4.1"/>
<feComposite in2="SourceAlpha" operator="in" result="effect1_backgroundBlur_204_11790"/>
<feBlend mode="normal" in="SourceGraphic" in2="effect1_backgroundBlur_204_11790" result="shape"/>
</filter>
</defs>
</svg>
