<svg width="1150" height="301" viewBox="0 0 1150 301" fill="none" xmlns="http://www.w3.org/2000/svg">
<rect x="31.9736" width="1085.52" height="10.6573" fill="#7383B4"/>
<rect x="31.9736" y="10.6577" width="1085.52" height="10.6573" fill="#ACC5EE"/>
<rect x="31.9736" y="268.365" width="1085.52" height="10.6573" fill="#ACC5EE"/>
<rect x="31.9717" y="279.022" width="1085.52" height="10.6573" fill="#7383B4"/>
<rect x="1149.47" y="31.9717" width="226.051" height="10.6573" transform="rotate(90 1149.47 31.9717)" fill="#7383B4"/>
<rect x="1138.81" y="31.9717" width="226.051" height="10.6573" transform="rotate(90 1138.81 31.9717)" fill="#ACC5EE"/>
<rect y="257.708" width="225.735" height="10.6573" transform="rotate(-90 0 257.708)" fill="#7383B4"/>
<rect x="10.6572" y="257.708" width="225.735" height="10.6573" transform="rotate(-90 10.6572 257.708)" fill="#ACC5EE"/>
<rect x="21.3145" y="247.051" width="204.421" height="10.6573" transform="rotate(-90 21.3145 247.051)" fill="#E6E6F6"/>
<rect x="1117.5" y="247.366" width="204.736" height="10.6573" transform="rotate(-90 1117.5 247.366)" fill="#E6E6F6"/>
<rect x="31.9736" y="257.708" width="225.735" height="10.6573" transform="rotate(-90 31.9736 257.708)" fill="#E6E6F6"/>
<rect x="42.6309" y="268.365" width="247.05" height="1064.2" transform="rotate(-90 42.6309 268.365)" fill="#E6E6F6"/>
<rect x="1106.84" y="257.708" width="225.736" height="10.6573" transform="rotate(-90 1106.84 257.708)" fill="#E6E6F6"/>
<rect x="1128.15" y="10.6572" width="10.6573" height="10.6573" transform="rotate(90 1128.15 10.6572)" fill="#7383B4"/>
<rect x="1128.15" y="268.681" width="10.6573" height="10.6573" transform="rotate(90 1128.15 268.681)" fill="#7383B4"/>
<rect x="10.6572" y="268.365" width="10.6573" height="10.6573" transform="rotate(-90 10.6572 268.365)" fill="#7383B4"/>
<rect x="21.3145" y="279.022" width="10.6573" height="10.6573" transform="rotate(-90 21.3145 279.022)" fill="#7383B4"/>
<rect y="268.365" width="10.6573" height="10.6573" transform="rotate(-90 0 268.365)" fill="#56567C"/>
<rect x="10.6572" y="279.022" width="10.6573" height="10.6573" transform="rotate(-90 10.6572 279.022)" fill="#56567C"/>
<rect x="21.3145" y="289.68" width="10.6573" height="10.6573" transform="rotate(-90 21.3145 289.68)" fill="#56567C"/>
<rect x="1138.81" y="258.023" width="10.6573" height="10.6573" transform="rotate(90 1138.81 258.023)" fill="#7383B4"/>
<rect x="1138.81" y="21.3149" width="10.6573" height="10.6573" transform="rotate(90 1138.81 21.3149)" fill="#7383B4"/>
<rect x="10.6572" y="31.9722" width="10.6573" height="10.6573" transform="rotate(-90 10.6572 31.9722)" fill="#7383B4"/>
<rect x="21.3145" y="21.3149" width="10.6573" height="10.6573" transform="rotate(-90 21.3145 21.3149)" fill="#7383B4"/>
<rect x="21.3145" y="31.9727" width="10.6573" height="10.6573" transform="rotate(-90 21.3145 31.9727)" fill="#ACC5EE"/>
<rect x="21.3145" y="42.6299" width="10.6573" height="10.6573" transform="rotate(-90 21.3145 42.6299)" fill="#ACC5EE"/>
<rect x="21.3145" y="268.365" width="10.6573" height="10.6573" transform="rotate(-90 21.3145 268.365)" fill="#ACC5EE"/>
<path d="M31.9736 268.365L31.9736 257.707L42.631 257.707L42.631 268.365L31.9736 268.365Z" fill="#ACC5EE"/>
<rect x="1106.84" y="268.365" width="10.6573" height="10.6573" transform="rotate(-90 1106.84 268.365)" fill="#ACC5EE"/>
<rect x="1117.49" y="268.681" width="10.6573" height="10.6573" transform="rotate(-90 1117.49 268.681)" fill="#ACC5EE"/>
<rect x="1117.49" y="258.023" width="10.6573" height="10.6573" transform="rotate(-90 1117.49 258.023)" fill="#ACC5EE"/>
<rect x="21.3145" y="257.708" width="10.6573" height="10.6573" transform="rotate(-90 21.3145 257.708)" fill="#ACC5EE"/>
<rect x="31.9736" y="31.9727" width="10.6573" height="10.6573" transform="rotate(-90 31.9736 31.9727)" fill="#ACC5EE"/>
<rect x="1106.84" y="31.9727" width="10.6573" height="10.6573" transform="rotate(-90 1106.84 31.9727)" fill="#ACC5EE"/>
<rect x="1117.49" y="31.9727" width="10.6573" height="10.6573" transform="rotate(-90 1117.49 31.9727)" fill="#ACC5EE"/>
<rect x="1117.49" y="42.6309" width="10.6573" height="10.6573" transform="rotate(-90 1117.49 42.6309)" fill="#ACC5EE"/>
<rect x="31.9717" y="289.679" width="1085.52" height="10.6573" fill="#56567C"/>
<rect x="1128.15" y="279.338" width="10.6573" height="10.6573" transform="rotate(-90 1128.15 279.338)" fill="#56567C"/>
<rect x="1117.49" y="289.995" width="10.6573" height="10.6573" transform="rotate(-90 1117.49 289.995)" fill="#56567C"/>
<rect x="1138.81" y="268.681" width="10.6573" height="10.6573" transform="rotate(-90 1138.81 268.681)" fill="#56567C"/>
</svg>
